# xmcd
#
# Track frame offsets:
#	150
#	19066
#	40677
#	60846
#	79113
#	98389
#	120483
#	136979
#	157608
#	177650
#
# Disc length: 2575 seconds
#
# Revision: 0
# Processed by: cddbd v1.5.2PL0 Copyright (c) Steve Scherf et al.
# Submitted via: EasyCDDAExtractor 12.0.4.1
#
DISCID=670a0d0a
DTITLE=Janusz Bigda - Czytalem milosc
DYEAR=2000
DGENRE=Vocal
TTITLE0=Czytalem milosc
TTITLE1=Jechalem cala noc
TTITLE2=Wszystko madrze jest stworzone
TTITLE3=Wszystkim, ktorzy jeszcze szukaja
TTITLE4=Kochanie spiewam dla Ciebie
TTITLE5=Jestem tylko Twoj
TTITLE6=Prawdziwa milosc
TTITLE7=Nie martw sie
TTITLE8=Budzi sie nowy dzien
TTITLE9=Czy zaprosiles Jezusa
EXTD=
EXTT0=
EXTT1=
EXTT2=
EXTT3=
EXTT4=
EXTT5=
EXTT6=
EXTT7=
EXTT8=
EXTT9=
PLAYORDER=
